<svg id="Layer_1" data-name="Layer 1" xmlns="http://www.w3.org/2000/svg" viewBox="0 0 216 252"><defs><style>.cls-1{fill:#231f20;}</style></defs><title>icon</title><path class="cls-1" d="M41.48,21.14H45l4.81,14.59H47l-1.16-3.61H40.3l-1.14,3.61H36.61Zm-0.55,9h4.3l-2.14-6.77Z"/><path class="cls-1" d="M50.85,30.52V30.36a5.26,5.26,0,0,1,5.39-5.53c2.37,0,4.59,1.06,4.88,4H58.72a2.2,2.2,0,0,0-2.45-2c-1.69,0-2.9,1.31-2.9,3.51v0.16c0,2.33,1.14,3.55,3,3.55a2.43,2.43,0,0,0,2.57-2.29h2.26c-0.18,2.45-2,4.18-4.94,4.18A5.1,5.1,0,0,1,50.85,30.52Z"/><path class="cls-1" d="M70.8,34a4.15,4.15,0,0,1-3.51,2c-2.67,0-4.69-1.9-4.69-5.37V30.4c0-3.41,2-5.57,4.79-5.57a3.65,3.65,0,0,1,3.41,1.86V25.06h2.47V39.38H70.8V34Zm0.08-3.53V30.28c0-2.35-1.08-3.51-2.88-3.51S65.13,28,65.13,30.34V30.5c0,2.35,1.18,3.47,2.77,3.47S70.88,32.83,70.88,30.44Z"/><path class="cls-1" d="M76.1,31.89V25.06h2.47v6.55c0,1.61.67,2.35,2.1,2.35a2.38,2.38,0,0,0,2.49-2.55V25.06h2.47V35.73H83.16V34.05a3.59,3.59,0,0,1-3.39,1.88C77.67,35.93,76.1,34.73,76.1,31.89Z"/><path class="cls-1" d="M88.34,21.89a1.47,1.47,0,1,1,1.47,1.41A1.43,1.43,0,0,1,88.34,21.89Zm0.27,3.16h2.47V35.73H88.61V25.06Z"/><path class="cls-1" d="M94.07,25.06h2.47v2A3.56,3.56,0,0,1,100,24.89V27.2c-2.16,0-3.47.71-3.47,3v5.55H94.07V25.06Z"/><path class="cls-1" d="M101.25,30.5V30.34a5.19,5.19,0,0,1,5.3-5.51c2.65,0,5,1.57,5,5.39v0.71h-7.81c0.08,2,1.1,3.16,2.94,3.16,1.49,0,2.26-.59,2.45-1.63h2.39c-0.35,2.24-2.16,3.47-4.9,3.47A5.11,5.11,0,0,1,101.25,30.5Zm7.89-1.22c-0.12-1.84-1.06-2.65-2.59-2.65a2.74,2.74,0,0,0-2.73,2.65h5.32Z"/><path d="M198.31,137.77l-21.5-21.49a1.5,1.5,0,0,0-2.56,1.06v96H46.13v-96a1.5,1.5,0,0,0-2.51-1.11L20.13,137.48a1.5,1.5,0,0,0,2,2.22l21-19v94.09a1.5,1.5,0,0,0,1.5,1.5H175.76a1.5,1.5,0,0,0,1.5-1.5V121l18.93,18.93A1.5,1.5,0,0,0,198.31,137.77Z"/><polygon points="167.96 117.17 159.63 71.43 46.74 92.01 51.32 117.17 167.96 117.17"/></svg>