<svg id="Layer_1" data-name="Layer 1" xmlns="http://www.w3.org/2000/svg" viewBox="0 0 216 252"><defs><style>.cls-1{fill:#231f20;}</style></defs><title>icon</title><rect class="cls-1" x="53.09" y="100.63" width="114.75" height="114.75"/><path class="cls-1" d="M191.49,213.88H181.41V85.3a1.5,1.5,0,0,0-1.5-1.5H41a1.5,1.5,0,0,0-1.5,1.5V213.88H29.45a1.5,1.5,0,0,0,0,3H41a1.5,1.5,0,0,0,1.5-1.5V86.8H178.41V215.38a1.5,1.5,0,0,0,1.5,1.5h11.57A1.5,1.5,0,0,0,191.49,213.88Z"/><path class="cls-1" d="M37,28.23V28.07c0-4.39,3-7.45,7.08-7.45,3.35,0,5.94,1.67,6.26,5.1H47.58a3.12,3.12,0,0,0-3.49-2.94c-2.57,0-4.24,2-4.24,5.26v0.16c0,3.28,1.57,5.22,4.26,5.22a3.4,3.4,0,0,0,3.73-3.08H50.5c-0.43,3.51-2.92,5.28-6.39,5.28C39.54,35.64,37,32.72,37,28.23Z"/><path class="cls-1" d="M51.93,30.21V30a5.48,5.48,0,0,1,11-.06v0.16A5.48,5.48,0,0,1,51.93,30.21Zm8.43,0V30c0-2.2-1.1-3.55-2.94-3.55s-3,1.33-3,3.53v0.16c0,2.18,1.08,3.55,3,3.55S60.35,32.35,60.35,30.17Z"/><path class="cls-1" d="M65.1,24.76h2.47v1.71a4.12,4.12,0,0,1,3.49-1.94c2.67,0,4.73,2,4.73,5.43v0.16c0,3.43-2,5.51-4.73,5.51a3.86,3.86,0,0,1-3.49-1.88v5.32H65.1V24.76Zm8.16,5.41V30c0-2.37-1.22-3.53-2.84-3.53S67.49,27.64,67.49,30v0.16c0,2.39,1.16,3.51,3,3.51S73.27,32.46,73.27,30.17Z"/><path class="cls-1" d="M80.83,34.35l-4.22-9.59h2.67l2.84,6.88,2.61-6.88h2.41L81.32,39.09H78.9Z"/><path class="cls-1" d="M89,24.76h2.47v2a3.56,3.56,0,0,1,3.47-2.16v2.31c-2.16,0-3.47.71-3.47,3v5.55H89V24.76Z"/><path class="cls-1" d="M96.89,21.6A1.47,1.47,0,1,1,98.36,23,1.43,1.43,0,0,1,96.89,21.6Zm0.27,3.16h2.47V35.43H97.15V24.76Z"/><path class="cls-1" d="M102,35.8h2.49c0.2,1.06,1,1.67,2.63,1.67,1.92,0,3-1,3-2.88V33a4.16,4.16,0,0,1-3.49,2c-2.67,0-4.73-2-4.73-5.08V29.78c0-3,2-5.24,4.79-5.24a3.68,3.68,0,0,1,3.43,1.86V24.76h2.47v9.87c0,3.14-2.12,4.71-5.43,4.71S102.31,37.84,102,35.8Zm8.18-6V29.7c0-2-1.1-3.22-2.88-3.22s-2.9,1.33-2.9,3.26V29.9c0,2,1.22,3.2,2.82,3.2A2.94,2.94,0,0,0,110.21,29.84Z"/><path class="cls-1" d="M115.53,19.83H118v6.63a3.67,3.67,0,0,1,3.45-1.92c2.14,0,3.65,1.24,3.65,4.18v6.71h-2.47V28.95c0-1.61-.65-2.35-2.12-2.35A2.37,2.37,0,0,0,118,29.15v6.28h-2.47V19.83Z"/><path class="cls-1" d="M128.34,32.46V26.62h-1.43V24.76h1.43V22.42h2.47v2.35h2.35v1.86h-2.35v5.61A1.16,1.16,0,0,0,132,33.6a3,3,0,0,0,1.2-.2v2a4.75,4.75,0,0,1-1.67.27A2.87,2.87,0,0,1,128.34,32.46Z"/></svg>