<svg id="Layer_1" data-name="Layer 1" xmlns="http://www.w3.org/2000/svg" viewBox="0 0 216 252"><defs><style>.cls-1{fill:#231f20;}</style></defs><title>icon</title><path class="cls-1" d="M37.66,21.14h4.43c5.08,0,7.55,2.9,7.55,7.14v0.18c0,4.24-2.47,7.26-7.59,7.26H37.66V21.14ZM42,33.58c3.26,0,4.83-1.88,4.83-5.1V28.32c0-3.14-1.43-5-4.86-5H40.37v10.3H42Z"/><path class="cls-1" d="M51.3,30.5V30.34a5.19,5.19,0,0,1,5.3-5.51c2.65,0,5,1.57,5,5.39v0.71H53.83c0.08,2,1.1,3.16,2.94,3.16,1.49,0,2.26-.59,2.45-1.63h2.39c-0.35,2.24-2.16,3.47-4.9,3.47A5.11,5.11,0,0,1,51.3,30.5Zm7.9-1.22c-0.12-1.84-1.06-2.65-2.59-2.65a2.74,2.74,0,0,0-2.73,2.65H59.2Z"/><path class="cls-1" d="M63.85,25.06h2.47v1.71a4.12,4.12,0,0,1,3.49-1.94c2.67,0,4.73,2,4.73,5.43v0.16c0,3.43-2,5.51-4.73,5.51a3.86,3.86,0,0,1-3.49-1.88v5.33H63.85V25.06ZM72,30.46V30.3c0-2.37-1.22-3.53-2.84-3.53s-2.94,1.16-2.94,3.53v0.16c0,2.39,1.16,3.51,3,3.51S72,32.75,72,30.46Z"/><path class="cls-1" d="M76,32.77c0-2.49,2.41-3.39,5.47-3.39h1.33V28.83c0-1.43-.49-2.14-1.94-2.14a1.78,1.78,0,0,0-2,1.67H76.42c0.2-2.49,2.18-3.53,4.57-3.53s4.26,1,4.26,3.9v7H82.82V34.42a3.71,3.71,0,0,1-3.26,1.51C77.6,35.93,76,35,76,32.77ZM82.78,32V30.93H81.52c-1.88,0-3.08.43-3.08,1.73a1.43,1.43,0,0,0,1.71,1.49C81.66,34.16,82.78,33.36,82.78,32Z"/><path class="cls-1" d="M88.08,25.06h2.47v2A3.56,3.56,0,0,1,94,24.89V27.2c-2.16,0-3.47.71-3.47,3v5.55H88.08V25.06Z"/><path class="cls-1" d="M96.69,32.75V26.91H95.26V25.06h1.43V22.71h2.47v2.35h2.35v1.86H99.16v5.61a1.16,1.16,0,0,0,1.22,1.37,3,3,0,0,0,1.2-.2v2a4.75,4.75,0,0,1-1.67.26A2.87,2.87,0,0,1,96.69,32.75Z"/><path d="M169.23,179.54a1.48,1.48,0,0,0-.68-2.08L54,124.71a1.49,1.49,0,0,0-1.61.23L41.79,134a1.5,1.5,0,0,0-.16,2.12l12.84,14.91v64h55.15l6.9,8a1.5,1.5,0,0,0,1,.52h0.11a1.5,1.5,0,0,0,1-.36l9.48-8.17h41.1V179.54ZM117.82,220L44.89,135.33l8.7-7.5,111.58,51.38Z"/></svg>