<svg id="Layer_1" data-name="Layer 1" xmlns="http://www.w3.org/2000/svg" viewBox="0 0 216 252"><defs><style>.cls-1{fill:#231f20;}</style></defs><title>icon</title><path class="cls-1" d="M37.73,21.14h9.12v2.14H40.44v4h5.14v2H40.44v4.26H47.2v2.14H37.73V21.14Z"/><path class="cls-1" d="M49.44,25.06h2.47v1.69a3.67,3.67,0,0,1,3.45-1.92C57.5,24.83,59,26.08,59,29v6.71H56.54V29.24c0-1.61-.65-2.35-2.12-2.35a2.37,2.37,0,0,0-2.51,2.55v6.28H49.44V25.06Z"/><path class="cls-1" d="M61.13,30.52V30.36a5.26,5.26,0,0,1,5.39-5.53c2.37,0,4.59,1.06,4.88,4H69a2.2,2.2,0,0,0-2.45-2c-1.69,0-2.9,1.31-2.9,3.51v0.16c0,2.33,1.14,3.55,3,3.55a2.43,2.43,0,0,0,2.57-2.29h2.26c-0.18,2.45-2,4.18-4.94,4.18A5.1,5.1,0,0,1,61.13,30.52Z"/><path class="cls-1" d="M72.86,30.5V30.34a5.48,5.48,0,1,1,11-.06v0.16A5.48,5.48,0,0,1,72.86,30.5Zm8.43,0V30.32c0-2.2-1.1-3.55-2.94-3.55s-3,1.33-3,3.53v0.16c0,2.18,1.08,3.55,3,3.55S81.28,32.65,81.28,30.46Z"/><path class="cls-1" d="M85.93,31.89V25.06H88.4v6.55c0,1.61.67,2.35,2.1,2.35A2.38,2.38,0,0,0,93,31.4V25.06h2.47V35.73H93V34.05a3.6,3.6,0,0,1-3.39,1.88C87.5,35.93,85.93,34.73,85.93,31.89Z"/><path class="cls-1" d="M98.38,25.06h2.47v1.69a3.67,3.67,0,0,1,3.45-1.92c2.14,0,3.65,1.24,3.65,4.18v6.71h-2.47V29.24c0-1.61-.65-2.35-2.12-2.35a2.37,2.37,0,0,0-2.51,2.55v6.28H98.38V25.06Z"/><path class="cls-1" d="M111.19,32.75V26.91h-1.43V25.06h1.43V22.71h2.47v2.35H116v1.86h-2.35v5.61a1.16,1.16,0,0,0,1.22,1.37,3,3,0,0,0,1.2-.2v2a4.75,4.75,0,0,1-1.67.27A2.87,2.87,0,0,1,111.19,32.75Z"/><path class="cls-1" d="M117.59,30.5V30.34a5.19,5.19,0,0,1,5.3-5.51c2.65,0,5,1.57,5,5.39v0.71h-7.81c0.08,2,1.1,3.16,2.94,3.16,1.49,0,2.26-.59,2.45-1.63h2.39c-0.35,2.24-2.16,3.47-4.9,3.47A5.11,5.11,0,0,1,117.59,30.5Zm7.9-1.22c-0.12-1.84-1.06-2.65-2.59-2.65a2.74,2.74,0,0,0-2.73,2.65h5.32Z"/><path class="cls-1" d="M130.14,25.06h2.47v2a3.56,3.56,0,0,1,3.47-2.16V27.2c-2.16,0-3.47.71-3.47,3v5.55h-2.47V25.06Z"/><path class="cls-1" d="M173.13,99.05a1.5,1.5,0,0,0-.56-0.64L159,84.85a1.5,1.5,0,0,0-1.06-.44H44.17a1.5,1.5,0,0,0-1.5,1.5V199.68a1.5,1.5,0,0,0,.44,1.06l14.71,14.71a2.72,2.72,0,0,0,1.34.56H171.77a1.5,1.5,0,0,0,1.5-1.5V100.24A1.48,1.48,0,0,0,173.13,99.05ZM60.38,201.13h0v0H156.8L168.74,213H60.38V201.13Zm98-2.74V101.32h11.92v109Zm9.87-100.07H59.39L48.48,87.41H157.32ZM45.67,199.06V88.84l11.71,11.71V210.77Z"/></svg>