<svg id="Layer_1" data-name="Layer 1" xmlns="http://www.w3.org/2000/svg" viewBox="0 0 216 252"><defs><style>.cls-1{fill:#231f20;}</style></defs><title>icon</title><path class="cls-1" d="M37.81,20.85h2.73V35.43H37.81V20.85Z"/><path class="cls-1" d="M43.79,24.76h2.47v1.69a3.67,3.67,0,0,1,3.45-1.92c2.14,0,3.65,1.24,3.65,4.18v6.71H50.89V28.95c0-1.61-.65-2.35-2.12-2.35a2.37,2.37,0,0,0-2.51,2.55v6.28H43.79V24.76Z"/><path class="cls-1" d="M56.6,32.45V26.62H55.17V24.76H56.6V22.42h2.47v2.35h2.35v1.86H59.07v5.61a1.16,1.16,0,0,0,1.22,1.37,3,3,0,0,0,1.2-.2v2a4.75,4.75,0,0,1-1.67.27A2.87,2.87,0,0,1,56.6,32.45Z"/><path class="cls-1" d="M63,30.21V30a5.19,5.19,0,0,1,5.3-5.51c2.65,0,5,1.57,5,5.39v0.71H65.53c0.08,2,1.1,3.16,2.94,3.16,1.49,0,2.26-.59,2.45-1.63h2.39c-0.35,2.24-2.16,3.47-4.9,3.47A5.11,5.11,0,0,1,63,30.21ZM70.9,29c-0.12-1.84-1.06-2.65-2.59-2.65A2.74,2.74,0,0,0,65.57,29H70.9Z"/><path class="cls-1" d="M75.55,24.76H78v1.69a3.67,3.67,0,0,1,3.45-1.92c2.14,0,3.65,1.24,3.65,4.18v6.71H82.65V28.95c0-1.61-.65-2.35-2.12-2.35A2.37,2.37,0,0,0,78,29.15v6.28H75.55V24.76Z"/><path class="cls-1" d="M88.36,32.45V26.62H86.93V24.76h1.43V22.42h2.47v2.35h2.35v1.86H90.83v5.61a1.16,1.16,0,0,0,1.22,1.37,3,3,0,0,0,1.2-.2v2a4.75,4.75,0,0,1-1.67.27A2.87,2.87,0,0,1,88.36,32.45Z"/><path class="cls-1" d="M95.28,21.6A1.47,1.47,0,1,1,96.75,23,1.43,1.43,0,0,1,95.28,21.6Zm0.27,3.16H98V35.43H95.54V24.76Z"/><path class="cls-1" d="M100.29,30.21V30a5.48,5.48,0,0,1,11-.06v0.16A5.48,5.48,0,0,1,100.29,30.21Zm8.43,0V30c0-2.2-1.1-3.55-2.94-3.55s-3,1.33-3,3.53v0.16c0,2.18,1.08,3.55,3,3.55S108.72,32.35,108.72,30.17Z"/><path class="cls-1" d="M113.47,24.76h2.47v1.69a3.67,3.67,0,0,1,3.45-1.92c2.14,0,3.65,1.24,3.65,4.18v6.71h-2.47V28.95c0-1.61-.65-2.35-2.12-2.35a2.37,2.37,0,0,0-2.51,2.55v6.28h-2.47V24.76Z"/><path class="cls-1" d="M165.38,209.38a1,1,0,0,0-1,1v4h-4a1,1,0,0,0,0,2h5a1,1,0,0,0,1-1v-5A1,1,0,0,0,165.38,209.38Z"/><path class="cls-1" d="M113.57,214.38H102.43a1,1,0,1,0,0,2h11.14A1,1,0,0,0,113.57,214.38Z"/><path class="cls-1" d="M142.54,214.38H131.4a1,1,0,0,0,0,2h11.14A1,1,0,0,0,142.54,214.38Z"/><path class="cls-1" d="M84.6,214.38H73.45a1,1,0,0,0,0,2H84.6A1,1,0,1,0,84.6,214.38Z"/><path class="cls-1" d="M55.63,214.38h-4v-4a1,1,0,0,0-2,0v5a1,1,0,0,0,1,1h5A1,1,0,1,0,55.63,214.38Z"/><path class="cls-1" d="M50.63,135.6a1,1,0,0,0,1-1V123.46a1,1,0,0,0-2,0V134.6A1,1,0,0,0,50.63,135.6Z"/><path class="cls-1" d="M50.63,164.57a1,1,0,0,0,1-1V152.43a1,1,0,0,0-2,0v11.14A1,1,0,0,0,50.63,164.57Z"/><path class="cls-1" d="M50.63,193.55a1,1,0,0,0,1-1V181.4a1,1,0,0,0-2,0v11.14A1,1,0,0,0,50.63,193.55Z"/><path class="cls-1" d="M55.63,99.63h-5a1,1,0,0,0-1,1v5a1,1,0,0,0,2,0v-4h4A1,1,0,0,0,55.63,99.63Z"/><path class="cls-1" d="M113.57,99.63H102.43a1,1,0,0,0,0,2h11.14A1,1,0,0,0,113.57,99.63Z"/><path class="cls-1" d="M84.6,99.63H73.46a1,1,0,0,0,0,2H84.6A1,1,0,0,0,84.6,99.63Z"/><path class="cls-1" d="M142.55,99.63H131.4a1,1,0,0,0,0,2h11.14A1,1,0,0,0,142.55,99.63Z"/><path class="cls-1" d="M165.38,99.63h-5a1,1,0,0,0,0,2h4v4a1,1,0,1,0,2,0v-5A1,1,0,0,0,165.38,99.63Z"/><path class="cls-1" d="M165.38,122.46a1,1,0,0,0-1,1V134.6a1,1,0,0,0,2,0V123.46A1,1,0,0,0,165.38,122.46Z"/><path class="cls-1" d="M165.38,180.4a1,1,0,0,0-1,1v11.14a1,1,0,0,0,2,0V181.4A1,1,0,0,0,165.38,180.4Z"/><path class="cls-1" d="M165.38,151.43a1,1,0,0,0-1,1v11.14a1,1,0,0,0,2,0V152.43A1,1,0,0,0,165.38,151.43Z"/></svg>