<svg id="Layer_1" data-name="Layer 1" xmlns="http://www.w3.org/2000/svg" viewBox="0 0 216 252"><defs><style>.cls-1{fill:#231f20;}</style></defs><title>icon</title><circle class="cls-1" cx="47.38" cy="99.74" r="4.93"/><path class="cls-1" d="M159.79,209a4.87,4.87,0,0,0-2.25.57L127.65,179.7h8a1.5,1.5,0,0,0,0-3H124a1.5,1.5,0,0,0-1.5,1.5v11.57a1.5,1.5,0,0,0,3,0v-7.93l29.87,29.87a4.86,4.86,0,0,0-.31.75H68.63l5.64-5.64a1.5,1.5,0,1,0-2.12-2.12L64,212.89A1.5,1.5,0,0,0,64,215l8.18,8.18a1.5,1.5,0,0,0,2.12-2.12l-5.61-5.61h86.46A4.92,4.92,0,1,0,159.79,209Z"/><path class="cls-1" d="M169,186.1a1.5,1.5,0,0,0-2.12,0l-5.61,5.61V104.4a4.91,4.91,0,1,0-6.21-6.08H68.63l5.64-5.64a1.5,1.5,0,0,0-2.12-2.12L64,98.75a1.5,1.5,0,0,0,0,2.12l8.18,8.18a1.5,1.5,0,0,0,2.12-2.12l-5.61-5.61h86.48a4.9,4.9,0,0,0,3.16,3.09v87.33l-5.64-5.64a1.5,1.5,0,0,0-2.12,2.12l8.18,8.18a1.5,1.5,0,0,0,2.12,0l8.18-8.18A1.5,1.5,0,0,0,169,186.1Z"/><path class="cls-1" d="M122.65,140.29v8a1.5,1.5,0,0,0,3,0V136.69a1.5,1.5,0,0,0-1.5-1.5H112.58a1.5,1.5,0,1,0,0,3h7.93L49.29,209.41c-0.14-.06-0.29-0.09-0.43-0.13V131.46l5.64,5.64A1.5,1.5,0,0,0,56.62,135l-8.18-8.18a1.5,1.5,0,0,0-2.12,0L38.13,135a1.5,1.5,0,0,0,2.12,2.12l5.61-5.61v77.79a4.93,4.93,0,1,0,5.7,2.09Z"/><path class="cls-1" d="M38.18,21.85h2.71V34.27h6.22v2.16H38.18V21.85Z"/><path class="cls-1" d="M48.44,33.48c0-2.49,2.41-3.39,5.47-3.39h1.33V29.54c0-1.43-.49-2.14-1.94-2.14a1.78,1.78,0,0,0-2,1.67H48.87c0.2-2.49,2.18-3.53,4.57-3.53s4.26,1,4.26,3.9v7H55.27V35.13A3.71,3.71,0,0,1,52,36.64C50,36.64,48.44,35.7,48.44,33.48Zm6.79-.78V31.64H54c-1.88,0-3.08.43-3.08,1.73a1.43,1.43,0,0,0,1.71,1.49C54.11,34.86,55.23,34.07,55.23,32.7Z"/><path class="cls-1" d="M63,34.72v1.71H60.53V20.83H63v6.65a4.12,4.12,0,0,1,3.49-1.94c2.67,0,4.73,2,4.73,5.43v0.16c0,3.43-2,5.51-4.73,5.51A3.81,3.81,0,0,1,63,34.72Zm5.69-3.55V31c0-2.37-1.22-3.53-2.84-3.53S62.92,28.64,62.92,31v0.16c0,2.39,1.16,3.51,3,3.51S68.69,33.46,68.69,31.17Z"/><path class="cls-1" d="M72.73,31.21V31a5.48,5.48,0,0,1,11-.06v0.16A5.48,5.48,0,0,1,72.73,31.21Zm8.43,0V31c0-2.2-1.1-3.55-2.94-3.55s-3,1.33-3,3.53v0.16c0,2.18,1.08,3.55,3,3.55S81.16,33.35,81.16,31.17Z"/><path class="cls-1" d="M85.91,25.76h2.47v2a3.56,3.56,0,0,1,3.47-2.16v2.31c-2.16,0-3.47.71-3.47,3v5.55H85.91V25.76Z"/></svg>