<svg id="Layer_1" data-name="Layer 1" xmlns="http://www.w3.org/2000/svg" viewBox="0 0 216 252"><defs><style>.cls-1{fill:#231f20;}</style></defs><title>icon</title><path class="cls-1" d="M39.24,20.85h3.24l6.14,10.55V20.85h2.47V35.43H48.27L41.71,24.25V35.43H39.24V20.85Z"/><path class="cls-1" d="M53.35,32.48c0-2.49,2.41-3.39,5.47-3.39h1.33V28.54c0-1.43-.49-2.14-1.94-2.14a1.78,1.78,0,0,0-2,1.67H53.78c0.2-2.49,2.18-3.53,4.57-3.53s4.26,1,4.26,3.9v7H60.19V34.13a3.71,3.71,0,0,1-3.26,1.51C55,35.64,53.35,34.7,53.35,32.48Zm6.79-.78V30.64H58.88c-1.88,0-3.08.43-3.08,1.73a1.43,1.43,0,0,0,1.71,1.49C59,33.86,60.15,33.07,60.15,31.7Z"/><path class="cls-1" d="M65.45,24.76h2.47v2a3.56,3.56,0,0,1,3.47-2.16v2.31c-2.16,0-3.47.71-3.47,3v5.55H65.45V24.76Z"/><path class="cls-1" d="M73.55,24.76H76v2a3.56,3.56,0,0,1,3.47-2.16v2.31c-2.16,0-3.47.71-3.47,3v5.55H73.55V24.76Z"/><path class="cls-1" d="M80.67,32.48c0-2.49,2.41-3.39,5.47-3.39h1.33V28.54c0-1.43-.49-2.14-1.94-2.14a1.78,1.78,0,0,0-2,1.67H81.1c0.2-2.49,2.18-3.53,4.57-3.53s4.26,1,4.26,3.9v7H87.5V34.13a3.71,3.71,0,0,1-3.26,1.51C82.28,35.64,80.67,34.7,80.67,32.48Zm6.79-.78V30.64H86.2c-1.88,0-3.08.43-3.08,1.73a1.43,1.43,0,0,0,1.71,1.49C86.34,33.86,87.46,33.07,87.46,31.7Z"/><path class="cls-1" d="M93.17,32.45V26.62H91.75V24.76h1.43V22.42h2.47v2.35H98v1.86H95.64v5.61a1.16,1.16,0,0,0,1.22,1.37,3,3,0,0,0,1.2-.2v2a4.75,4.75,0,0,1-1.67.27A2.87,2.87,0,0,1,93.17,32.45Z"/><path class="cls-1" d="M99.58,30.21V30a5.19,5.19,0,0,1,5.3-5.51c2.65,0,5,1.57,5,5.39v0.71h-7.81c0.08,2,1.1,3.16,2.94,3.16,1.49,0,2.26-.59,2.45-1.63h2.39c-0.35,2.24-2.16,3.47-4.9,3.47A5.11,5.11,0,0,1,99.58,30.21Zm7.9-1.22c-0.12-1.84-1.06-2.65-2.59-2.65A2.74,2.74,0,0,0,102.15,29h5.32Z"/><path class="cls-1" d="M36.09,110.72H149.27a1.5,1.5,0,0,0,0-3H36.09A1.5,1.5,0,1,0,36.09,110.72Z"/><path class="cls-1" d="M36.09,121.5H142.27a1.5,1.5,0,1,0,0-3H36.09A1.5,1.5,0,0,0,36.09,121.5Z"/><path class="cls-1" d="M149.27,129.28H36.09a1.5,1.5,0,0,0,0,3H149.27A1.5,1.5,0,0,0,149.27,129.28Z"/><path class="cls-1" d="M36.09,143.06H139.27a1.5,1.5,0,0,0,0-3H36.09A1.5,1.5,0,0,0,36.09,143.06Z"/><path class="cls-1" d="M149.27,150.84H36.09a1.5,1.5,0,0,0,0,3H149.27A1.5,1.5,0,1,0,149.27,150.84Z"/><path class="cls-1" d="M36.09,164.62H147.27a1.5,1.5,0,0,0,0-3H36.09A1.5,1.5,0,0,0,36.09,164.62Z"/><path class="cls-1" d="M149.27,172.39H36.09a1.5,1.5,0,0,0,0,3H149.27A1.5,1.5,0,0,0,149.27,172.39Z"/><path class="cls-1" d="M36.09,186.17h99.18a1.5,1.5,0,0,0,0-3H36.09A1.5,1.5,0,0,0,36.09,186.17Z"/><path class="cls-1" d="M36.09,197H143.27a1.5,1.5,0,1,0,0-3H36.09A1.5,1.5,0,0,0,36.09,197Z"/><path class="cls-1" d="M149.27,204.73H36.09a1.5,1.5,0,0,0,0,3H149.27A1.5,1.5,0,0,0,149.27,204.73Z"/><path class="cls-1" d="M81.64,215.51H36.09a1.5,1.5,0,0,0,0,3H81.64A1.5,1.5,0,0,0,81.64,215.51Z"/></svg>