<svg id="Layer_1" data-name="Layer 1" xmlns="http://www.w3.org/2000/svg" viewBox="0 0 216 252"><defs><style>.cls-1{fill:#231f20;}</style></defs><title>icon</title><path class="cls-1" d="M30.82,31.9h2.61c0.18,1.47.77,2.69,3.24,2.69,1.61,0,2.75-.9,2.75-2.24s-0.67-1.86-3-2.24c-3.49-.47-5.14-1.53-5.14-4.26,0-2.39,2-4.18,5.08-4.18s5,1.43,5.3,4.22H39.14C38.88,24.36,38,23.7,36.33,23.7s-2.51.8-2.51,1.92,0.49,1.77,3,2.14c3.43,0.47,5.2,1.45,5.2,4.37,0,2.53-2.14,4.51-5.37,4.51C32.7,36.64,31,34.66,30.82,31.9Z"/><path class="cls-1" d="M43.75,31.21V31a5.48,5.48,0,0,1,11-.06v0.16A5.48,5.48,0,0,1,43.75,31.21Zm8.43,0V31c0-2.2-1.1-3.55-2.94-3.55s-3,1.33-3,3.53v0.16c0,2.18,1.08,3.55,3,3.55S52.18,33.35,52.18,31.17Z"/><path class="cls-1" d="M56.83,32.6V25.76H59.3v6.55c0,1.61.67,2.35,2.1,2.35a2.38,2.38,0,0,0,2.49-2.55V25.76h2.47V36.43H63.89V34.76a3.59,3.59,0,0,1-3.39,1.88C58.4,36.64,56.83,35.43,56.83,32.6Z"/><path class="cls-1" d="M69.27,25.76h2.47v2a3.56,3.56,0,0,1,3.47-2.16v2.31c-2.16,0-3.47.71-3.47,3v5.55H69.27V25.76Z"/><path class="cls-1" d="M76.45,31.23V31.07a5.26,5.26,0,0,1,5.39-5.53c2.37,0,4.59,1.06,4.88,4H84.33a2.2,2.2,0,0,0-2.45-2c-1.69,0-2.9,1.31-2.9,3.51v0.16c0,2.33,1.14,3.55,3,3.55a2.43,2.43,0,0,0,2.57-2.28h2.26c-0.18,2.45-2,4.18-4.94,4.18A5.1,5.1,0,0,1,76.45,31.23Z"/><path class="cls-1" d="M88.18,31.21V31a5.19,5.19,0,0,1,5.3-5.51c2.65,0,5,1.57,5,5.39v0.71H90.71c0.08,2,1.1,3.16,2.94,3.16,1.49,0,2.26-.59,2.45-1.63h2.39c-0.35,2.24-2.16,3.47-4.9,3.47A5.11,5.11,0,0,1,88.18,31.21ZM96.08,30C96,28.15,95,27.33,93.49,27.33A2.74,2.74,0,0,0,90.75,30h5.32Z"/><path class="cls-1" d="M157.23,100.13V86a1.5,1.5,0,0,0-1.5-1.5H41a1.5,1.5,0,0,0-1.5,1.5V200.72a1.5,1.5,0,0,0,1.5,1.5H56.79v12.66H171.54V100.13H157.23ZM42.48,199.22V87.47H154.23v12.66H56.79v99.09H42.48Z"/></svg>