<svg id="Layer_1" data-name="Layer 1" xmlns="http://www.w3.org/2000/svg" viewBox="0 0 216 252"><defs><style>.cls-1{fill:#231f20;}</style></defs><title>icon</title><path class="cls-1" d="M36.83,31.86h2.61c0.18,1.47.77,2.69,3.24,2.69,1.61,0,2.75-.9,2.75-2.24s-0.67-1.86-3-2.24c-3.49-.47-5.14-1.53-5.14-4.26,0-2.39,2-4.18,5.08-4.18s5,1.43,5.3,4.22H45.15c-0.27-1.53-1.14-2.18-2.81-2.18s-2.51.8-2.51,1.92,0.49,1.78,3,2.14c3.43,0.47,5.2,1.45,5.2,4.37,0,2.53-2.14,4.51-5.37,4.51C38.71,36.6,37,34.62,36.83,31.86Z"/><path class="cls-1" d="M50.28,32.56V25.72h2.47v6.55c0,1.61.67,2.35,2.1,2.35a2.38,2.38,0,0,0,2.49-2.55V25.72H59.8V36.39H57.33V34.72a3.59,3.59,0,0,1-3.39,1.88C51.85,36.6,50.28,35.39,50.28,32.56Z"/><path class="cls-1" d="M62.72,25.72h2.47v1.71a4.12,4.12,0,0,1,3.49-1.94c2.67,0,4.73,2,4.73,5.43v0.16c0,3.43-2,5.51-4.73,5.51a3.86,3.86,0,0,1-3.49-1.88V40H62.72V25.72Zm8.16,5.41V31c0-2.37-1.22-3.53-2.84-3.53S65.11,28.6,65.11,31v0.16c0,2.39,1.16,3.51,3,3.51S70.88,33.41,70.88,31.13Z"/><path class="cls-1" d="M75.63,25.72H78.1v1.71a4.12,4.12,0,0,1,3.49-1.94c2.67,0,4.73,2,4.73,5.43v0.16c0,3.43-2,5.51-4.73,5.51a3.86,3.86,0,0,1-3.49-1.88V40H75.63V25.72Zm8.16,5.41V31c0-2.37-1.22-3.53-2.84-3.53S78,28.6,78,31v0.16c0,2.39,1.16,3.51,3,3.51S83.79,33.41,83.79,31.13Z"/><path class="cls-1" d="M87.83,31.17V31a5.48,5.48,0,0,1,11-.06v0.16A5.48,5.48,0,0,1,87.83,31.17Zm8.43,0V31c0-2.2-1.1-3.55-2.94-3.55s-3,1.33-3,3.53v0.16c0,2.18,1.08,3.55,3,3.55S96.26,33.31,96.26,31.13Z"/><path class="cls-1" d="M101,25.72h2.47v2a3.56,3.56,0,0,1,3.47-2.16v2.31c-2.16,0-3.47.71-3.47,3v5.55H101V25.72Z"/><path class="cls-1" d="M109.62,33.41V27.58h-1.43V25.72h1.43V23.38h2.47v2.35h2.35v1.86h-2.35v5.61a1.16,1.16,0,0,0,1.22,1.37,3,3,0,0,0,1.2-.2v2a4.75,4.75,0,0,1-1.67.26A2.87,2.87,0,0,1,109.62,33.41Z"/><rect class="cls-1" x="64.01" y="100.65" width="114.75" height="114.75"/><path class="cls-1" d="M66.76,80a1.5,1.5,0,0,0-1.85,1l-38,132.6a1.5,1.5,0,0,0,1,1.86,1.52,1.52,0,0,0,.41.06,1.5,1.5,0,0,0,1.44-1.09l38-132.6A1.5,1.5,0,0,0,66.76,80Z"/></svg>