<svg id="Layer_1" data-name="Layer 1" xmlns="http://www.w3.org/2000/svg" viewBox="0 0 216 252"><defs><style>.cls-1{fill:#231f20;}</style></defs><title>icon</title><path class="cls-1" d="M40.65,23.95H36.59V21.8H47.44v2.14H43.38V36.39H40.65V23.95Z"/><path class="cls-1" d="M48.7,25.72h2.47v2a3.56,3.56,0,0,1,3.47-2.16v2.31c-2.16,0-3.47.71-3.47,3v5.55H48.7V25.72Z"/><path class="cls-1" d="M55.82,33.43c0-2.49,2.41-3.39,5.47-3.39h1.33V29.5c0-1.43-.49-2.14-1.94-2.14a1.78,1.78,0,0,0-2,1.67H56.25c0.2-2.49,2.18-3.53,4.57-3.53s4.26,1,4.26,3.9v7H62.66V35.09a3.71,3.71,0,0,1-3.26,1.51C57.44,36.6,55.82,35.66,55.82,33.43Zm6.79-.78V31.6H61.35c-1.88,0-3.08.43-3.08,1.73A1.43,1.43,0,0,0,60,34.82C61.5,34.82,62.62,34,62.62,32.66Z"/><path class="cls-1" d="M67.92,25.72h2.47v1.69a3.67,3.67,0,0,1,3.45-1.92c2.14,0,3.65,1.24,3.65,4.18v6.71H75V29.9c0-1.61-.65-2.35-2.12-2.35a2.37,2.37,0,0,0-2.51,2.55v6.28H67.92V25.72Z"/><path class="cls-1" d="M79.51,33.07h2.33c0.12,1.08.67,1.71,2.12,1.71s1.92-.47,1.92-1.37-0.71-1.2-2.29-1.47c-2.82-.45-3.86-1.24-3.86-3.24s2-3.2,4-3.2c2.18,0,3.92.82,4.18,3.22H85.63a1.65,1.65,0,0,0-1.9-1.43c-1.06,0-1.69.51-1.69,1.26s0.51,1.08,2.2,1.37c2.51,0.39,4,1,4,3.26S86.71,36.6,84,36.6,79.61,35.33,79.51,33.07Z"/><path class="cls-1" d="M90.83,27.58H89.38V25.72h1.45V24.29a3.25,3.25,0,0,1,3.59-3.61,4.19,4.19,0,0,1,1.41.2V22.8a3.4,3.4,0,0,0-1.12-.18,1.35,1.35,0,0,0-1.41,1.57v1.53h2.43v1.86H93.3v8.81H90.83V27.58Z"/><path class="cls-1" d="M96.66,31.17V31A5.19,5.19,0,0,1,102,25.5c2.65,0,5,1.57,5,5.39V31.6H99.19c0.08,2,1.1,3.16,2.94,3.16,1.49,0,2.26-.59,2.45-1.63H107c-0.35,2.24-2.16,3.47-4.9,3.47A5.11,5.11,0,0,1,96.66,31.17Zm7.9-1.22c-0.12-1.84-1.06-2.65-2.59-2.65a2.74,2.74,0,0,0-2.73,2.65h5.32Z"/><path class="cls-1" d="M109.21,25.72h2.47v2a3.56,3.56,0,0,1,3.47-2.16v2.31c-2.16,0-3.47.71-3.47,3v5.55h-2.47V25.72Z"/><polygon points="156.71 102.69 41.96 102.69 41.96 139.11 156.71 191.49 156.71 102.69"/><polygon points="59.31 149.41 59.31 215.74 174.06 215.74 174.06 201.79 59.31 149.41"/></svg>